PathFileType	4	(X/Y/Z)	/Users/itak/Documents/Research/Walk-IL/dataset/trc/00074_00006.trc
DataRate	CameraRate	NumFrames	NumMarkers	Units	OrigDataRate	OrigDataStartFrame	OrigNumFrames
100.000000	100.000000	4	53	mm	100.000000	359	718
Frame#	Time	RPSI			LPSI			L3			STRN			T10			C7			CLAV			RBAK			LBAK			LSHO			LUPA			LAEL			LAOL			LWTS			LWPS			LFRA			LIFD			LHPS			LHTS			RSHO			RUPA			RAEL			RAOL			RWTS			RWPS			RFRA			RIFD			RHTS			RHPS			RBHD			LFHD			RFHD			LBHD			LHIP			RHIP			RASI			LASI			LKNE			LTHI			LANK			LTIP			LTOE			LMT1			LMT5			LHEE			RKNE			RTHI			RANK			RTIP			RTOE			RMT1			RMT5			RHEE			
		X1	Y1	Z1	X2	Y2	Z2	X3	Y3	Z3	X4	Y4	Z4	X5	Y5	Z5	X6	Y6	Z6	X7	Y7	Z7	X8	Y8	Z8	X9	Y9	Z9	X10	Y10	Z10	X11	Y11	Z11	X12	Y12	Z12	X13	Y13	Z13	X14	Y14	Z14	X15	Y15	Z15	X16	Y16	Z16	X17	Y17	Z17	X18	Y18	Z18	X19	Y19	Z19	X20	Y20	Z20	X21	Y21	Z21	X22	Y22	Z22	X23	Y23	Z23	X24	Y24	Z24	X25	Y25	Z25	X26	Y26	Z26	X27	Y27	Z27	X28	Y28	Z28	X29	Y29	Z29	X30	Y30	Z30	X31	Y31	Z31	X32	Y32	Z32	X33	Y33	Z33	X34	Y34	Z34	X35	Y35	Z35	X36	Y36	Z36	X37	Y37	Z37	X38	Y38	Z38	X39	Y39	Z39	X40	Y40	Z40	X41	Y41	Z41	X42	Y42	Z42	X43	Y43	Z43	X44	Y44	Z44	X45	Y45	Z45	X46	Y46	Z46	X47	Y47	Z47	X48	Y48	Z48	X49	Y49	Z49	X50	Y50	Z50	X51	Y51	Z51	X52	Y52	Z52	X53	Y53	Z53	

360	3.59	-141.5085906982422	1021.966552734375	-222.7464447021484	-196.5269012451172	1018.284240722656	-385.8620300292969	-168.9490356445312	1086.120971679688	-314.9202270507812	85.59477233886719	1273.947875976562	-388.556640625	-177.7872619628906	1217.490966796875	-324.5349426269531	-113.0526504516602	1481.903442382812	-348.5056762695312	59.87335586547852	1389.645629882812	-385.1312866210938	-161.7496795654297	1347.3203125	-258.3295593261719	-159.1824645996094	1444.899536132812	-438.0422058105469	-77.93189239501953	1450.499755859375	-532.5294799804688	-125.1704330444336	1332.452270507812	-609.9266357421875	-130.9442596435547	1122.655639648438	-653.0563354492188	-163.5990600585938	1100.211181640625	-553.5045166015625	-44.12295913696289	874.0570068359375	-651.3096313476562	-119.8482513427734	874.0651245117188	-688.3665771484375	-122.8081436157227	1015.357238769531	-678.4368896484375	-44.29543304443359	686.3500366210938	-666.2938232421875	-94.80970764160156	793.714111328125	-707.3363037109375	-31.11795043945312	792.2344360351562	-674.1199951171875	-15.34060955047607	1447.39453125	-191.9659881591797	-19.54372215270996	1383.92578125	-125.3643493652344	-65.13445281982422	1130.687622070312	-61.84090805053711	-59.90962600708008	1099.974609375	-156.0870361328125	92.95975494384766	892.0498046875	-124.1241455078125	34.43597030639648	868.5146484375	-63.68365859985352	-46.4012451171875	1046.645141601562	-51.08413314819336	108.9089584350586	701.6832885742188	-148.4993438720703	120.8929977416992	788.4989013671875	-132.3170318603516	73.65191650390625	782.234619140625	-72.29469299316406	-52.75799179077148	1664.787719726562	-440.741943359375	67.65114593505859	1680.123779296875	-262.1373596191406	110.325439453125	1705.3232421875	-378.45947265625	-88.52993774414062	1631.464599609375	-312.3353881835938	-124.1750640869141	956.8175048828125	-503.1178588867188	-54.59626770019531	952.4446411132812	-161.5466766357422	55.50692749023438	971.6989135742188	-221.8226013183594	-2.357586622238159	962.76318359375	-482.5478210449219	4.479774951934814	502.2650451660156	-499.6247253417969	-50.62058258056641	639.1543579101562	-521.7420654296875	-125.1162109375	43.77863693237305	-533.0581665039062	-63.89157104492188	261.9241943359375	-530.429443359375	81.63391876220703	39.33272171020508	-540.3486328125	37.1182746887207	42.23370361328125	-483.1653442382812	-25.5626106262207	33.34781646728516	-578.4865112304688	-170.7752075195312	43.11207580566406	-454.0978088378906	149.8105773925781	532.15380859375	-251.7430572509766	67.42853546142578	790.5037231445312	-195.1108856201172	-145.8693542480469	136.1058959960938	-236.7608642578125	91.50080108642578	416.7010803222656	-243.1172485351562	37.50503921508789	61.97342300415039	-309.4329833984375	-23.62779998779297	81.60306549072266	-337.8258972167969	-32.69615173339844	90.15458679199219	-240.3616943359375	-193.7684173583984	159.3157653808594	-285.9094543457031	
361	3.6	-136.3368072509766	1022.4580078125	-225.9083099365234	-189.1939544677734	1018.745849609375	-389.6020812988281	-162.7577056884766	1086.713500976562	-318.7009887695312	93.26882171630859	1274.295654296875	-388.4408264160156	-171.1083984375	1217.870239257812	-328.9001159667969	-105.9996948242188	1482.31103515625	-351.6859741210938	67.60382843017578	1390.0185546875	-385.3427429199219	-156.1247711181641	1347.670532226562	-262.4567565917969	-150.5490570068359	1445.33935546875	-441.9692687988281	-67.66037750244141	1451.099975585938	-535.0149536132812	-113.3445587158203	1333.080078125	-613.4065551757812	-117.3594512939453	1123.299072265625	-657.1226196289062	-151.5126800537109	1100.456420898438	-558.2877197265625	-28.13910484313965	875.5787353515625	-654.0264282226562	-103.2115173339844	874.692626953125	-692.1875	-107.8322982788086	1015.998901367188	-682.4432373046875	-25.76642417907715	687.9254760742188	-669.0513305664062	-77.0303955078125	794.6758422851562	-710.7897338867188	-13.83403873443604	793.9100341796875	-676.7028198242188	-10.82347869873047	1447.641967773438	-193.5280303955078	-16.36293983459473	1384.331298828125	-127.0297317504883	-63.44062042236328	1131.371826171875	-63.79573059082031	-56.32277679443359	1100.317749023438	-157.8610229492188	95.609375	892.2318725585938	-121.8601226806641	35.84033966064453	869.0613403320312	-62.60351943969727	-45.0525016784668	1047.361083984375	-52.36960983276367	111.6913452148438	701.7896728515625	-145.3792572021484	123.498420715332	788.6140747070312	-129.1791229248047	74.97582244873047	782.6376342773438	-70.07284545898438	-44.17775726318359	1665.222778320312	-442.3686828613281	74.16895294189453	1680.347900390625	-262.3421325683594	118.2556533813477	1705.554809570312	-378.2255859375	-81.50935363769531	1631.9130859375	-314.4254455566406	-115.7500991821289	956.9984130859375	-505.9153747558594	-49.91973876953125	953.3196411132812	-163.6528778076172	60.69142913818359	972.3335571289062	-222.5868988037109	5.989476680755615	962.8443603515625	-484.0057067871094	7.585811138153076	501.4395141601562	-500.1335144042969	-45.5647087097168	638.884765625	-522.8775024414062	-124.9928512573242	43.9716682434082	-532.8711547851562	-62.37577438354492	261.5840759277344	-530.5437622070312	81.77119445800781	39.22563171386719	-540.315185546875	37.24503326416016	42.11450958251953	-483.0899047851562	-25.46133995056152	33.41927337646484	-578.360595703125	-170.5346832275391	43.24344253540039	-453.9309997558594	160.5385589599609	535.427734375	-250.4821014404297	74.13776397705078	792.7302856445312	-195.0408020019531	-121.6515808105469	128.3902893066406	-245.6051788330078	105.0817565917969	417.6315612792969	-243.6645050048828	67.17805480957031	62.82896041870117	-312.0381469726562	6.2018141746521	79.53536987304688	-342.6140441894531	-6.572532653808594	87.69149780273438	-245.4423828125	-168.9916687011719	149.4727783203125	-296.263427734375	
362	3.61	-131.0807952880859	1022.813049316406	-228.9543914794922	-181.8466339111328	1019.131591796875	-393.2079772949219	-156.4636383056641	1087.147827148438	-322.3076782226562	100.9089126586914	1274.456176757812	-388.2112426757812	-164.3912658691406	1218.105834960938	-333.0801696777344	-98.83427429199219	1482.5791015625	-354.6685180664062	75.32968139648438	1390.21044921875	-385.4231567382812	-150.4416656494141	1347.87060546875	-266.4368286132812	-141.8423309326172	1445.631958007812	-445.7241821289062	-57.37076187133789	1451.5078125	-537.3034057617188	-101.5323791503906	1333.537475585938	-616.6619262695312	-103.8486709594727	1123.782470703125	-660.95361328125	-139.5469207763672	1100.55517578125	-562.8742065429688	-12.14880466461182	877.0148315429688	-656.3233642578125	-86.55779266357422	875.1555786132812	-695.5775146484375	-92.91718292236328	1016.466613769531	-686.1383666992188	-6.990336418151855	689.471435546875	-671.1890258789062	-59.12880706787109	795.4859008789062	-713.720703125	3.563906669616699	795.5562133789062	-678.7837524414062	-6.270503997802734	1447.705810546875	-195.0026702880859	-13.10588932037354	1384.546875	-128.6377410888672	-61.58416366577148	1131.869995117188	-65.64128875732422	-52.65868759155273	1100.459716796875	-159.5093994140625	98.24144744873047	892.2330932617188	-119.5628662109375	37.28007888793945	869.42041015625	-61.50829696655273	-43.58605575561523	1047.890380859375	-53.58313751220703	114.3945388793945	701.736572265625	-142.3191680908203	126.0004730224609	788.5430297851562	-126.0937728881836	76.33042144775391	782.8406372070312	-67.875	-35.58626174926758	1665.501098632812	-443.8181762695312	80.67170715332031	1680.406982421875	-262.3849792480469	126.1290283203125	1705.6474609375	-377.8132629394531	-74.48178863525391	1632.1650390625	-316.3598327636719	-107.3037261962891	957.1253662109375	-508.5804748535156	-45.29058074951172	953.9659423828125	-165.7205200195312	65.88372802734375	972.7315673828125	-223.2744598388672	14.33233547210693	962.833740234375	-485.3199768066406	10.72977447509766	500.6085510253906	-500.7509155273438	-40.49416732788086	638.6118774414062	-524.0235595703125	-124.8869247436523	44.12150955200195	-532.7426147460938	-60.87198257446289	261.2650756835938	-530.7271728515625	81.87306213378906	39.13302993774414	-540.304931640625	37.35287475585938	42.03683853149414	-483.0561218261719	-25.38253593444824	33.45117568969727	-578.279052734375	-170.3943328857422	43.43073654174805	-453.8275451660156	170.6728210449219	538.3318481445312	-249.0484771728516	80.57284545898438	794.616943359375	-194.8095855712891	-96.75169372558594	120.4964218139648	-253.8368072509766	118.4145584106445	418.2267761230469	-244.0052337646484	96.94609069824219	63.78047180175781	-314.0431518554688	36.35152053833008	77.6431884765625	-346.7687377929688	19.90814590454102	85.12900543212891	-249.9153900146484	-143.4340057373047	139.5044403076172	-305.9706726074219	
363	3.62	-125.7270050048828	1023.0166015625	-231.8802032470703	-174.4942932128906	1019.429626464844	-396.6675415039062	-150.0620422363281	1087.426391601562	-325.73193359375	108.5229034423828	1274.436767578125	-387.8684387207031	-157.6335906982422	1218.198486328125	-337.0545349121094	-91.55465698242188	1482.70556640625	-357.4462890625	83.05870056152344	1390.228637695312	-385.3713073730469	-144.6783905029297	1347.923095703125	-270.2477111816406	-133.0705871582031	1445.782958984375	-449.2913513183594	-47.07132720947266	1451.72607421875	-539.3858642578125	-89.72664642333984	1333.828125	-619.6892700195312	-90.39340972900391	1124.103393554688	-664.544921875	-127.7043762207031	1100.505249023438	-567.2626953125	3.835334777832031	878.3547973632812	-658.1830444335938	-69.8970947265625	875.4722290039062	-698.5485229492188	-78.04286193847656	1016.768493652344	-689.5216064453125	11.95291996002197	690.9835815429688	-672.7037963867188	-41.10737609863281	796.162109375	-716.1475219726562	21.04994773864746	797.1685180664062	-680.3389892578125	-1.670998334884644	1447.593505859375	-196.3836822509766	-9.758001327514648	1384.576538085938	-130.1750030517578	-59.56638717651367	1132.182739257812	-67.38980865478516	-48.90959930419922	1100.41357421875	-161.0454864501953	100.8824768066406	892.0718383789062	-117.2499465942383	38.75947189331055	869.5975952148438	-60.40666580200195	-41.99610137939453	1048.235961914062	-54.73571014404297	117.0547637939453	701.5260009765625	-139.284912109375	128.4371490478516	788.2966918945312	-123.0499267578125	77.73491668701172	782.8587646484375	-65.69533538818359	-26.98172187805176	1665.619018554688	-445.0970458984375	87.16669464111328	1680.309692382812	-262.2756042480469	133.947265625	1705.59912109375	-377.2279968261719	-67.44139862060547	1632.22900390625	-318.1418151855469	-98.84054565429688	957.1962890625	-511.1108703613281	-40.70688247680664	954.3681030273438	-167.7424926757812	71.08565521240234	972.8929443359375	-223.8921051025391	22.65697860717773	962.728759765625	-486.4874877929688	13.925950050354	499.7569885253906	-501.4702758789062	-35.38903045654297	638.3276977539062	-525.1686401367188	-124.7906341552734	44.24267196655273	-532.6558227539062	-59.36917495727539	260.9582214355469	-530.9644775390625	81.94798278808594	39.05284118652344	-540.3114624023438	37.44037246704102	41.97202301025391	-483.0409240722656	-25.32297515869141	33.45452880859375	-578.2296752929688	-170.3587646484375	43.67609024047852	-453.7702941894531	180.2104187011719	540.8230590820312	-247.4756164550781	86.74346160888672	796.150634765625	-194.4184417724609	-71.20569610595703	112.5412521362305	-261.3604125976562	131.4790344238281	418.5214538574219	-244.138427734375	126.7402877807617	64.89228057861328	-315.43359375	66.72492218017578	76.00679779052734	-350.2176513671875	46.70489883422852	82.55152893066406	-253.7465667724609	-117.1490783691406	129.5248260498047	-314.9145812988281	
